<svg width="50" height="66" viewBox="0 0 50 66" fill="none" xmlns="http://www.w3.org/2000/svg">
<g clip-path="url(#clip0_161_2)">
<path d="M21.9154 12.6361C20.4413 9.26831 17.7406 6.37914 14.3221 5.0267C10.9036 3.67425 6.78493 3.99546 3.81487 6.16196C0.844806 8.32846 -0.727922 12.38 0.329786 15.9008C1.12856 18.5597 3.18965 20.6086 4.9777 22.7325C6.76575 24.8564 8.41714 27.4349 8.11743 30.195C7.96353 31.6123 7.2994 32.9425 7.19723 34.3646C7.05211 36.3845 8.05401 38.3081 9.21601 39.9667C13.2328 45.7002 19.688 49.7514 26.6466 50.5165C33.6053 51.2815 40.9332 48.6252 45.5254 43.3413C47.3227 41.2732 48.7412 38.6811 48.6296 35.9434C48.5022 32.8175 46.3932 30.0719 43.8702 28.2221C41.3471 26.3722 38.394 25.2204 35.6196 23.7746C30.2392 20.9652 25.5187 17.0423 21.7722 12.2669L21.9154 12.6361Z" fill="#CDB4DB"/>
<path d="M37.7846 39.4392C30.2875 38.9104 22.7272 40.0982 15.6494 42.3328C22.6827 42.1177 32.0898 40.9941 37.7846 39.4392Z" fill="black"/>
<path d="M18.0955 15.4709C16.4413 15.6945 14.6924 15.9153 12.8419 16.117C12.4482 16.1609 12.0477 16.2034 11.6444 16.2459C9.64042 16.453 7.52253 16.6396 5.28663 16.7891C4.99862 16.8084 4.70874 16.8271 4.41699 16.8454C4.71189 16.8139 5.00405 16.7836 5.29352 16.7521C7.54309 16.5148 9.66281 16.2949 11.6527 16.0923C12.045 16.0525 12.4327 16.0137 12.8159 15.9757C14.6882 15.7878 16.444 15.619 18.0955 15.4709Z" fill="black"/>
<path d="M12.9696 64.0729C10.7309 63.9947 8.32362 63.9348 5.74763 63.8932C5.68997 63.8877 5.63236 63.8795 5.57476 63.8699C4.70921 63.7094 3.98084 62.9797 4.02337 62.0592C3.88071 47.1119 3.78606 31.6323 3.75586 17.999C4.23736 32.2962 4.73252 46.3794 5.16875 60.6341C4.87244 61.4571 5.62004 62.0565 7.08504 62.4886C8.48554 62.9014 10.5431 63.1621 12.9696 63.3171C22.6771 63.9357 38.2829 62.8768 41.3527 63.254C35.3858 20.5476 57.6155 12.0774 19.5222 15.3461C19.0558 15.3859 18.5802 15.4275 18.0956 15.471C18.573 15.4065 19.0407 15.3421 19.5016 15.2776C42.0659 12.1048 45.8011 8.86897 42.2937 40.5017C41.0208 71.8888 51.9971 65.4597 12.9696 64.0729Z" fill="black"/>
<path d="M18.6064 0.415368C19.0698 1.59767 19.5421 2.83416 20.2454 3.89968C21.624 3.10361 22.9015 2.14394 24.05 1.04152C27.369 -3.03763 24.165 6.01944 24.896 8.3886C24.9889 9.40299 24.9319 10.1874 24.7608 10.8015C24.5958 11.4896 24.1725 12.0877 23.5784 12.4721C22.1222 12.3661 20.0562 12.5485 17.6522 12.9124C17.6048 12.6687 17.5515 12.4234 17.4916 12.1739C16.4857 7.89498 14.0613 3.01201 18.6064 0.415368Z" fill="black"/>
<path d="M10.9447 24.0507C17.1332 22.3966 23.8269 23.7778 29.9707 21.3816C30.6477 21.2208 32.1465 20.5359 32.225 21.642C34.8071 40.0455 31.0816 32.8392 16.8167 35.7022C15.0643 35.9292 13.2584 36.1881 11.5106 36.4653C11.1516 32.7891 10.7937 29.1246 10.432 25.4205C10.4693 38.4934 9.11246 37.7795 22.3268 36.4459C24.7334 35.68 34.5209 37.4164 34.2192 34.873C34.6403 30.7736 34.5287 26.6369 33.887 22.5662C33.9792 18.487 30.0507 19.7436 27.577 20.7666C22.0441 22.8622 16.213 21.8834 10.9447 24.0507Z" fill="black"/>
<path d="M42.115 64.5506C47.047 59.7896 51.3413 54.6769 49.6087 47.3721C49.1916 38.6477 48.7153 29.9204 48.1176 21.2019C49.6748 1.95141 25.0336 7.38357 12.8277 8.66148C7.32003 8.52899 7.31281 12.5895 5.10303 16.3215C7.24461 14.391 6.66584 9.99919 10.1339 9.66385C17.8143 8.86696 44.2282 4.97044 45.8026 15.3469C47.2197 27.3665 47.6596 39.1263 48.8494 50.5953C50.248 56.4183 45.1524 60.3701 42.115 64.5506Z" fill="black"/>
<path d="M45.7758 55.2919C45.5779 20.4572 55.6517 4.19519 11.5483 13.7436C20.7027 13.3998 34.1627 9.68537 42.4021 15.4598C46.3117 27.8417 44.9493 43.0515 45.7758 55.2919Z" fill="black"/>
</g>
<defs>
<clipPath id="clip0_161_2">
<rect width="50" height="65.553" fill="white"/>
</clipPath>
</defs>
</svg>
